<?xml version="1.0" standalone="no"?>
<!DOCTYPE svg PUBLIC "-//W3C//DTD SVG 20010904//EN"
 "http://www.w3.org/TR/2001/REC-SVG-20010904/DTD/svg10.dtd">
<svg version="1.0" xmlns="http://www.w3.org/2000/svg"
 width="1033.000000pt" height="924.000000pt" viewBox="0 0 1033.000000 924.000000"
 preserveAspectRatio="xMidYMid meet">

<g transform="translate(0.000000,924.000000) scale(0.100000,-0.100000)"
fill="#000000" stroke="none">
<path d="M3745 5980 c-42 -17 -70 -59 -70 -106 0 -36 6 -49 32 -75 59 -60 172
-48 208 21 32 61 13 125 -45 155 -31 16 -93 19 -125 5z"/>
<path d="M7185 5980 c-42 -17 -70 -59 -70 -106 0 -36 6 -49 32 -75 59 -60 172
-48 208 21 32 61 13 125 -45 155 -31 16 -93 19 -125 5z"/>
<path d="M5030 5430 l0 -500 105 0 105 0 0 93 0 93 50 49 c30 29 53 45 58 40
5 -6 57 -70 116 -142 l107 -133 125 0 126 0 -30 38 c-16 20 -88 113 -161 205
-73 92 -131 172 -129 177 2 5 57 65 123 132 66 68 130 134 142 148 l22 25
-117 -1 c-64 -1 -120 -2 -125 -3 -4 0 -74 -64 -155 -141 l-147 -139 -3 279 -2
280 -105 0 -105 0 0 -500z"/>
<path d="M1853 5875 c-294 -64 -459 -361 -358 -645 51 -145 190 -262 355 -300
45 -11 66 -24 120 -74 36 -34 93 -76 126 -93 139 -74 330 -56 420 38 l27 28
-47 55 -47 55 -45 -28 c-78 -50 -154 -49 -218 2 l-30 24 65 31 c120 57 208
157 249 282 19 55 21 82 18 175 -3 102 -6 115 -40 185 -103 212 -345 319 -595
265z m252 -194 c194 -86 230 -373 64 -515 -75 -64 -192 -84 -292 -50 -64 22
-139 91 -168 156 -29 66 -32 191 -5 252 66 156 246 226 401 157z"/>
<path d="M6000 5400 l0 -470 110 0 110 0 0 195 0 195 215 0 215 0 0 -195 0
-195 110 0 110 0 0 470 0 470 -110 0 -110 0 0 -185 0 -185 -215 0 -215 0 0
185 0 185 -110 0 -110 0 0 -470z"/>
<path d="M4457 5658 c-131 -13 -255 -95 -306 -203 -32 -67 -40 -198 -17 -278
29 -100 113 -186 223 -227 166 -62 361 -19 450 98 18 24 33 47 33 50 0 4 -35
26 -78 49 l-77 41 -37 -38 c-86 -91 -233 -73 -296 35 -19 34 -22 52 -20 116 2
61 8 82 28 112 35 51 88 78 154 78 63 0 87 -10 137 -58 l36 -34 76 41 c43 23
77 45 77 48 0 4 -16 28 -35 54 -64 87 -196 132 -348 116z"/>
<path d="M8515 5659 c-122 -12 -240 -92 -292 -197 -39 -79 -45 -220 -13 -304
58 -155 232 -250 427 -234 89 7 175 39 221 81 l36 32 -50 56 c-49 57 -67 67
-80 46 -3 -6 -25 -20 -48 -30 -59 -27 -166 -26 -223 2 -45 22 -93 80 -93 112
0 17 14 18 265 16 192 -2 269 1 277 9 17 17 -4 158 -31 214 -69 143 -214 215
-396 197z m117 -159 c34 -10 108 -78 108 -99 0 -5 3 -16 6 -25 5 -14 -14 -16
-175 -16 l-181 0 15 37 c21 50 42 72 90 94 45 21 84 23 137 9z"/>
<path d="M2711 5652 c-14 -5 -15 -380 -1 -475 20 -133 85 -210 206 -242 103
-27 195 -13 274 40 l50 34 0 -40 0 -39 100 0 100 0 0 360 c0 198 -3 361 -7
361 -5 1 -52 2 -105 3 l-97 2 -3 -221 c-3 -211 -4 -222 -27 -258 -60 -98 -211
-102 -266 -7 -18 32 -20 57 -25 260 l-5 225 -92 0 c-50 0 -96 -1 -102 -3z"/>
<path d="M3704 5651 c-2 -2 -4 -166 -4 -363 l0 -358 105 0 105 0 -2 362 -3
363 -98 0 c-54 0 -100 -1 -103 -4z"/>
<path d="M7144 5651 c-2 -2 -4 -166 -4 -363 l0 -358 105 0 105 0 -2 362 -3
363 -98 0 c-54 0 -100 -1 -103 -4z"/>
<path d="M7614 5651 c-2 -2 -4 -166 -4 -363 l0 -358 105 0 105 0 0 204 c0 121
4 216 11 233 25 67 86 105 171 107 l58 1 0 93 0 92 -44 0 c-57 0 -122 -23
-168 -61 l-38 -30 0 41 c0 22 -3 41 -7 41 -24 4 -185 4 -189 0z"/>
<path d="M400 4250 l0 -110 4800 0 4800 0 0 110 0 110 -4800 0 -4800 0 0 -110z"/>
<path d="M1550 3670 c-18 -50 -37 -93 -41 -96 -5 -3 -54 -8 -109 -11 -55 -3
-100 -9 -100 -13 0 -4 28 -29 61 -56 34 -27 70 -56 81 -65 20 -15 20 -16 -6
-113 -14 -54 -26 -100 -26 -102 0 -12 26 1 97 46 43 27 83 50 88 50 6 0 45
-23 88 -50 84 -54 101 -60 93 -32 -7 25 -46 180 -46 184 0 3 36 33 79 68 44
35 78 67 76 70 -3 4 -51 10 -107 14 -56 4 -103 8 -104 9 0 1 -16 42 -35 91
-19 49 -39 91 -44 93 -6 2 -26 -38 -45 -87z"/>
<path d="M2450 3670 c-18 -50 -37 -93 -41 -96 -5 -3 -54 -8 -109 -11 -55 -3
-100 -9 -100 -13 0 -4 28 -29 61 -56 34 -27 70 -56 81 -65 20 -15 20 -16 -6
-113 -14 -54 -26 -100 -26 -102 0 -12 26 1 97 46 43 27 82 50 87 50 5 0 45
-22 88 -50 68 -43 98 -58 98 -47 0 1 -11 44 -25 95 -14 51 -25 97 -25 101 0 4
36 36 79 71 44 35 78 67 75 72 -3 4 -25 8 -48 8 -24 0 -70 3 -102 6 l-60 6
-34 91 c-19 50 -40 92 -45 94 -6 2 -26 -38 -45 -87z"/>
<path d="M3350 3670 c-18 -50 -37 -93 -41 -96 -5 -3 -54 -8 -109 -11 -55 -3
-100 -9 -100 -13 0 -4 28 -29 61 -56 34 -27 70 -56 81 -65 20 -15 20 -16 -6
-113 -14 -54 -26 -100 -26 -102 0 -12 26 1 97 46 43 27 82 50 87 50 5 0 45
-22 88 -50 68 -43 98 -58 98 -47 0 1 -11 44 -25 95 -14 51 -25 97 -25 101 0 4
36 36 79 71 44 35 78 67 75 72 -3 4 -25 8 -48 8 -24 0 -70 3 -102 6 l-60 6
-34 91 c-19 50 -40 92 -45 94 -6 2 -26 -38 -45 -87z"/>
<path d="M6950 3669 c-19 -50 -39 -93 -44 -94 -20 -7 -100 -14 -153 -14 -29
-1 -53 -5 -53 -9 0 -5 36 -37 80 -73 44 -35 80 -66 80 -69 0 -3 -11 -46 -25
-95 -14 -50 -25 -93 -25 -97 0 -16 21 -7 97 42 43 27 82 50 87 50 5 0 45 -22
88 -50 68 -43 98 -58 98 -47 0 1 -11 44 -25 95 -14 51 -25 97 -25 101 0 4 36
36 79 71 44 35 78 67 75 72 -3 4 -25 8 -48 8 -24 0 -70 3 -102 6 l-60 6 -34
91 c-19 50 -40 92 -45 94 -6 2 -26 -38 -45 -88z"/>
<path d="M7850 3670 c-18 -50 -37 -93 -41 -96 -5 -3 -54 -8 -109 -11 -55 -3
-100 -9 -100 -13 0 -4 28 -29 61 -56 34 -27 70 -56 81 -65 20 -15 20 -16 -6
-113 -14 -54 -26 -100 -26 -102 0 -12 26 1 97 46 43 27 82 50 87 50 5 0 45
-22 88 -50 68 -43 98 -58 98 -47 0 1 -11 44 -25 95 -14 51 -25 97 -25 101 0 4
36 36 79 71 44 35 78 67 75 72 -3 4 -25 8 -48 8 -24 0 -70 3 -102 6 l-60 6
-34 91 c-19 50 -40 92 -45 94 -6 2 -26 -38 -45 -87z"/>
<path d="M8750 3670 c-18 -50 -37 -93 -41 -96 -5 -3 -54 -8 -109 -11 -55 -3
-100 -9 -100 -13 0 -4 28 -29 61 -56 34 -27 70 -56 81 -65 20 -15 20 -16 -6
-113 -14 -54 -26 -100 -26 -102 0 -12 26 1 97 46 43 27 82 50 87 50 5 0 45
-22 88 -50 68 -43 98 -58 98 -47 0 1 -11 44 -25 95 -14 51 -25 97 -25 101 0 4
36 36 79 71 44 35 78 67 75 72 -3 4 -25 8 -48 8 -24 0 -70 3 -102 6 l-60 6
-34 91 c-19 50 -40 92 -45 94 -6 2 -26 -38 -45 -87z"/>
<path d="M4329 3461 l-24 -19 -3 -414 c-1 -227 0 -423 3 -436 8 -34 42 -62 74
-62 25 0 30 -5 35 -33 9 -49 28 -69 72 -76 36 -6 39 -9 45 -45 7 -44 27 -63
73 -71 17 -3 350 -5 739 -3 l709 3 24 28 24 28 0 418 c0 406 -1 419 -20 444
-12 15 -36 29 -54 33 -29 5 -35 11 -40 40 -8 40 -48 74 -87 74 -26 0 -29 3
-29 34 0 25 -7 40 -26 55 -26 21 -33 21 -759 21 -706 0 -734 -1 -756 -19z
m1475 -37 c14 -5 16 -51 16 -414 0 -331 -3 -410 -14 -419 -9 -8 -208 -10 -727
-9 l-714 3 -3 410 c-1 225 0 416 3 422 3 10 155 13 714 13 390 0 716 -3 725
-6z m114 -112 c10 -7 12 -98 10 -423 l-3 -414 -725 0 -725 0 -3 28 -3 27 676
0 676 0 24 25 25 24 0 364 c0 200 3 367 7 370 9 9 25 9 41 -1z m126 -134 c8
-30 8 -766 0 -796 l-6 -22 -727 2 -726 3 -3 28 -3 27 676 0 c422 0 683 4 695
10 36 19 40 62 40 421 l0 349 24 0 c16 0 26 -7 30 -22z"/>
<path d="M4704 3357 c-3 -8 -4 -32 -2 -53 2 -31 7 -39 23 -39 17 0 20 7 20 50
0 39 -4 50 -18 53 -9 2 -20 -3 -23 -11z"/>
<path d="M4844 3357 c-3 -8 -4 -32 -2 -53 2 -31 7 -39 23 -39 17 0 20 7 20 50
0 39 -4 50 -18 53 -9 2 -20 -3 -23 -11z"/>
<path d="M4987 3364 c-4 -4 -7 -22 -7 -41 0 -26 -9 -41 -41 -70 -65 -59 -92
-122 -97 -228 -5 -117 19 -187 89 -257 37 -37 48 -56 51 -85 2 -30 7 -38 23
-38 14 0 21 8 23 28 3 26 5 27 63 27 56 0 59 -1 59 -25 0 -29 28 -45 41 -24 5
8 9 28 9 44 0 22 11 40 41 69 23 21 53 64 67 95 23 47 27 70 27 146 0 76 -4
99 -27 147 -14 31 -44 74 -66 95 -32 31 -41 48 -44 79 -2 31 -7 39 -23 39 -14
0 -21 -8 -23 -27 -3 -27 -5 -28 -62 -28 -57 0 -59 1 -62 27 -3 27 -26 41 -41
27z m183 -122 c89 -55 136 -185 111 -303 -35 -162 -182 -240 -292 -156 -110
83 -133 279 -48 397 60 83 154 108 229 62z"/>
<path d="M5294 3357 c-3 -8 -4 -32 -2 -53 2 -31 7 -39 23 -39 17 0 20 7 20 50
0 39 -4 50 -18 53 -9 2 -20 -3 -23 -11z"/>
<path d="M5434 3357 c-3 -8 -4 -32 -2 -53 2 -31 7 -39 23 -39 17 0 20 7 20 50
0 39 -4 50 -18 53 -9 2 -20 -3 -23 -11z"/>
<path d="M4417 3327 c-12 -31 8 -38 99 -35 81 3 89 5 89 23 0 18 -8 20 -91 23
-71 2 -93 0 -97 -11z"/>
<path d="M5574 3325 c-11 -29 11 -36 97 -33 76 3 84 5 84 23 0 18 -8 20 -88
23 -73 2 -88 0 -93 -13z"/>
<path d="M4533 3075 c-42 -18 -68 -70 -59 -118 18 -95 151 -119 199 -37 34 58
16 125 -43 155 -35 18 -55 18 -97 0z m89 -52 c18 -16 24 -59 10 -79 -4 -6 -18
-17 -31 -24 -55 -28 -110 68 -59 104 29 21 57 20 80 -1z"/>
<path d="M5543 3074 c-46 -23 -69 -76 -54 -125 16 -52 53 -79 108 -79 63 0
103 40 103 104 0 86 -82 138 -157 100z m96 -60 c26 -33 26 -45 3 -74 -35 -43
-112 -15 -112 41 0 27 35 59 64 59 15 0 33 -11 45 -26z"/>
<path d="M4700 2700 c0 -37 4 -52 16 -57 23 -8 35 15 32 62 -3 33 -7 41 -25
43 -21 3 -23 0 -23 -48z"/>
<path d="M4844 2737 c-3 -8 -4 -32 -2 -53 2 -31 7 -39 23 -39 17 0 20 7 20 50
0 39 -4 50 -18 53 -9 2 -20 -3 -23 -11z"/>
<path d="M5294 2737 c-3 -8 -4 -32 -2 -53 2 -31 7 -39 23 -39 17 0 20 7 20 50
0 39 -4 50 -18 53 -9 2 -20 -3 -23 -11z"/>
<path d="M5434 2737 c-3 -8 -4 -32 -2 -53 2 -31 7 -39 23 -39 17 0 20 7 20 50
0 39 -4 50 -18 53 -9 2 -20 -3 -23 -11z"/>
<path d="M4417 2707 c-12 -31 8 -38 99 -35 81 3 89 5 89 23 0 18 -8 20 -91 23
-71 2 -93 0 -97 -11z"/>
<path d="M5572 2698 c3 -22 7 -23 93 -23 83 0 90 1 90 20 0 18 -8 20 -93 23
-92 3 -93 2 -90 -20z"/>
</g>
</svg>
