<svg width="542" height="537" viewBox="0 0 542 537" fill="none" xmlns="http://www.w3.org/2000/svg">
<path d="M482.946 221.764C470.515 229.835 455.986 237.262 440.004 243.719C424.183 250.015 406.586 255.342 388.344 259.701C370.102 264.06 350.568 266.966 330.872 268.742C321.025 269.71 311.016 270.356 301.007 270.679C295.841 270.84 290.997 270.84 285.993 271.002H270.495C250.8 270.195 230.459 268.58 211.086 265.674C191.714 262.93 172.664 259.056 154.906 253.89C136.986 248.724 120.197 242.589 105.022 235.647C89.8468 228.705 76.1246 220.956 64.824 212.723C53.5235 204.328 44.483 195.772 37.8641 187.539C31.4066 179.306 27.5321 171.557 25.272 165.261C24.7876 163.646 24.3033 162.032 23.819 160.74C23.4962 159.449 23.3347 158.157 23.0118 157.189C32.2138 136.04 44.3215 115.861 59.1738 97.2955C61.4339 106.82 66.7613 120.22 77.4162 132.327C87.7481 144.435 102.439 155.413 120.036 164.292C137.471 173.332 157.973 180.113 180.574 184.472C191.875 186.893 203.66 188.508 215.768 189.638C228.037 190.606 240.629 191.09 253.383 190.929C259.84 190.929 266.298 190.606 273.078 190.283C276.307 190.122 279.374 189.96 282.764 189.638C286.154 189.315 289.545 188.992 292.935 188.669C306.334 187.055 319.895 184.633 333.617 181.727C347.178 178.821 360.9 175.108 374.46 170.265C381.079 167.844 387.86 165.099 394.479 162.193C401.098 159.126 407.716 155.897 414.174 152.184C426.927 144.919 439.358 136.202 449.529 124.74C454.533 118.928 459.053 112.632 462.444 105.367C465.834 98.1027 467.61 90.1923 467.61 82.1205C467.61 81.3133 467.61 80.5061 467.61 79.8604C494.731 108.919 514.426 142.337 526.696 177.853C523.467 183.664 519.269 189.96 513.619 196.095C505.87 204.813 495.538 213.692 482.946 221.764Z" fill="white"/>
<path d="M502.803 344.617C488.758 352.528 472.614 359.792 455.018 365.927C437.259 372.062 418.21 377.066 398.192 381.102C378.174 385.138 357.187 388.044 335.877 389.82C325.061 390.627 314.406 391.273 303.428 391.596C297.939 391.757 292.773 391.757 287.284 391.757L270.656 391.596C249.185 391.111 227.23 389.497 206.082 386.752C184.933 384.008 164.269 380.134 144.735 375.29C125.04 370.447 106.636 364.636 89.6854 357.694C72.8959 350.913 57.5594 343.164 44.6445 335.093C38.0255 331.057 32.2138 326.698 26.8864 322.501C21.7204 318.142 17.0387 313.944 13.1642 309.586C8.32111 304.42 4.60806 299.415 1.86363 294.733C-1.20368 267.45 0.0878201 239.522 5.57668 212.239C5.89956 212.723 6.38387 213.208 6.86818 213.692C16.5544 224.831 28.6622 235.163 42.8687 244.526C57.0751 253.89 73.2188 261.962 90.654 269.065C108.089 276.007 126.816 281.818 146.511 286.339C166.207 290.859 186.709 294.088 207.534 296.025C228.36 297.962 249.508 298.769 270.979 298.285L286.477 297.801C291.805 297.316 297.294 297.155 302.46 296.671C312.953 295.702 323.446 294.733 333.778 293.119C354.442 290.052 374.46 286.016 393.51 280.688C412.721 275.199 430.802 268.742 447.43 261.154C464.058 253.405 479.233 244.849 492.31 235.486C505.386 225.961 516.202 215.629 524.597 205.297C527.341 201.907 529.763 198.517 531.862 195.288C543.001 236.455 544.292 279.558 535.575 321.209C531.7 324.922 527.019 328.635 522.175 332.348C516.202 336.384 509.745 340.743 502.803 344.617Z" fill="white"/>
<path d="M456.793 82.2821C456.793 95.197 450.336 107.628 440.973 117.314C436.452 122.157 431.125 126.516 425.636 130.552C419.986 134.265 414.013 137.655 408.039 140.884C383.339 152.991 356.379 158.965 330.388 161.871C317.312 163.485 304.397 163.969 291.643 163.808C288.576 163.808 285.509 163.808 282.441 163.646C279.374 163.646 275.984 163.485 272.917 163.323C266.943 163.001 260.647 162.516 254.674 161.871C242.889 160.74 231.427 158.803 220.449 156.705C209.633 154.444 199.14 151.861 189.454 148.956C169.92 142.982 152.969 135.718 139.569 127.969C126.17 120.22 116.161 111.825 110.511 104.56C104.699 97.2957 102.6 91.6454 101.955 87.9324C101.793 87.1252 101.955 86.8023 101.793 86.318L101.47 86.1565C101.47 86.1565 101.47 85.6722 101.47 85.3494C101.47 84.865 101.47 84.3807 101.47 83.8964C101.47 83.2507 101.47 82.6049 101.47 82.1206C101.47 81.9592 101.47 81.6363 101.47 80.8291C101.47 79.8605 101.632 78.569 101.955 76.7932C102.762 73.0801 104.699 67.4298 110.511 60.1652C116.323 52.9005 126.17 44.5058 139.569 36.7568C146.673 32.5594 155.067 28.5235 164.108 24.8105C163.462 26.7477 163.139 28.6849 162.816 30.2993C162.171 35.7882 162.171 38.8555 162.171 38.8555V40.6313C162.171 40.6313 162.332 42.4071 162.494 45.6358C162.816 48.0574 163.785 52.7391 165.238 56.775C166.691 60.1652 168.467 64.3625 171.05 68.0756C176.054 75.8246 183.642 83.2507 192.682 89.0624C201.723 94.8741 212.701 99.2329 224.485 101.816C236.27 104.399 248.862 105.368 262.1 104.722C263.715 104.722 265.49 104.56 266.943 104.399L269.365 104.076H270.656C270.334 104.076 271.302 104.076 271.141 104.076L271.625 103.915H272.109C275.338 103.43 278.083 103.107 281.473 102.462C288.576 101.17 295.195 99.3944 301.814 97.2957C315.213 93.0983 328.612 87.1252 340.397 77.9232C342.012 76.9546 343.303 75.5017 344.595 74.3716L346.693 72.4344L348.631 70.3357C351.375 67.7527 353.797 64.524 355.895 61.2952C360.093 54.6763 362.998 46.7659 362.998 38.5326L362.837 33.2052C362.514 31.1065 361.868 29.0078 361.384 26.7477C360.738 24.8105 359.931 23.0346 359.124 21.0974C358.317 19.483 357.187 17.7072 356.218 16.0928C353.958 12.8641 351.698 9.63537 348.953 7.05237L348.631 6.72949C386.568 18.1915 422.569 38.0483 453.565 66.4612C455.663 71.6272 456.793 76.9546 456.793 82.2821Z" fill="white"/>
<path d="M212.862 507.024C232.073 508.315 251.284 508.799 270.979 508.315L285.186 507.669C290.029 507.347 295.033 507.185 299.715 506.701C309.401 506.055 318.926 505.086 328.289 503.795C347.178 501.373 365.743 498.145 383.339 493.947C401.098 490.234 418.048 485.068 433.708 479.256C436.129 478.288 438.712 477.319 441.134 476.351C349.438 550.773 220.449 556.262 123.264 492.817C134.081 495.723 145.381 498.145 156.843 500.243C175.086 503.472 193.812 505.732 212.862 507.024Z" fill="white"/>
<path d="M206.243 42.0843C206.243 40.6314 206.082 39.3399 206.082 38.5327C206.082 38.3713 206.082 38.0484 206.082 37.2412C206.082 36.7569 206.243 36.2726 206.404 35.4654C206.889 34.6582 206.889 33.6896 207.696 32.2366C209.149 29.8151 211.893 26.2635 216.575 22.389C221.095 18.6759 227.714 14.4786 235.625 10.9269C237.723 10.1198 239.822 9.31258 241.921 8.34396C244.019 7.53677 246.279 6.72958 248.701 5.92239C250.961 5.27665 253.544 4.46947 255.966 3.82372C258.387 3.33941 260.486 2.69365 263.23 2.04791C263.876 2.04791 264.683 1.88647 265.329 1.72504C277.437 0.917851 289.867 0.433533 302.621 0.756407C306.98 1.40216 311.177 2.37078 315.536 3.50084C317.15 3.98515 318.442 4.46946 319.895 4.95377C321.348 5.43809 322.801 5.9224 324.254 6.56814L328.451 8.50539L332.487 10.7655C342.98 16.9001 351.859 27.0707 351.698 38.5327C351.698 44.183 349.599 49.6719 346.048 54.3535C342.496 59.1966 337.653 63.0711 332.487 66.2999L328.612 68.8829L324.415 70.6587C322.962 71.3044 321.509 71.7887 320.056 72.273C318.603 72.7573 317.312 73.5645 315.697 73.726C309.724 75.3404 303.751 76.6318 297.778 76.9547C291.805 77.7619 285.831 77.6005 280.504 77.2776C277.76 77.1162 274.369 76.7933 271.464 76.6318C268.881 76.1475 266.298 75.6632 263.715 75.3404C253.06 73.4031 243.535 70.1744 235.625 66.6227C227.714 63.0711 221.095 59.0352 216.575 55.1607C211.893 51.2862 209.149 47.7346 207.696 45.1516C206.889 44.0216 206.889 43.0529 206.243 42.0843C206.566 42.0843 206.404 41.9229 206.243 42.0843Z" fill="white"/>
<path d="M427.896 462.143C412.721 466.825 396.416 470.7 379.303 473.767C362.191 476.834 344.272 478.933 326.029 480.224C316.989 480.87 307.787 481.193 298.585 481.355C293.903 481.516 289.383 481.355 284.863 481.516L270.656 481.193C252.414 480.709 233.687 479.256 215.768 476.996C197.848 474.736 180.252 471.507 163.462 467.632C146.834 463.758 131.013 458.915 116.645 453.587C102.116 448.098 89.0396 442.125 77.9004 435.506C66.7613 429.21 57.3979 422.269 50.6176 415.65C43.8372 408.869 39.4784 402.573 37.2183 397.569C34.7967 392.726 34.151 388.205 33.9895 387.237C33.9895 387.237 33.9895 385.622 33.8281 384.977C33.8281 384.169 33.8281 383.524 33.8281 382.878C33.8281 381.748 33.6667 381.264 33.6667 381.264C33.6667 377.873 32.6981 374.645 31.2451 371.739C45.2901 379.165 60.6267 385.945 76.9318 391.434C95.82 398.053 116.161 403.542 137.309 407.901C158.458 412.259 180.413 415.165 203.014 416.941C225.292 418.878 247.894 419.524 270.979 419.04L287.769 418.394C293.419 418.071 299.231 417.748 304.72 417.264C316.02 416.618 327.321 415.488 338.298 413.874C360.415 410.968 382.048 407.093 402.873 401.927C423.537 396.761 443.233 390.465 461.475 383.201C479.717 376.098 496.345 367.541 511.036 358.339C517.655 354.304 523.79 349.945 529.44 345.586C518.785 380.133 501.027 412.905 476.166 441.802C474.067 443.255 471.646 444.547 469.224 445.838C456.955 451.973 442.91 457.462 427.896 462.143Z" fill="white"/>
</svg>
