<svg xmlns="http://www.w3.org/2000/svg" version="1.1" xmlns:xlink="http://www.w3.org/1999/xlink" xmlns:svgjs="http://svgjs.dev/svgjs" width="1500" height="261" viewBox="0 0 1500 261"><g transform="matrix(1,0,0,1,-0.9085962116691917,0.41701935506898735)"><svg viewBox="0 0 396 69" data-background-color="#ffffff" preserveAspectRatio="xMidYMid meet" height="261" width="1500" xmlns="http://www.w3.org/2000/svg" xmlns:xlink="http://www.w3.org/1999/xlink"><g id="tight-bounds" transform="matrix(1,0,0,1,0.24013060011941434,-0.11024649616766169)"><svg viewBox="0 0 395.52 69.22040642681682" height="69.22040642681682" width="395.52"><g><svg viewBox="0 0 486.66238906364896 85.17133991613936" height="69.22040642681682" width="395.52"><g><svg viewBox="0 0 395.52 85.17133991613936" height="85.17133991613936" width="395.52"><g id="textblocktransform"><svg viewBox="0 0 395.52 85.17133991613936" height="85.17133991613936" width="395.52" id="textblock"><g><svg viewBox="0 0 395.52 85.17133991613936" height="85.17133991613936" width="395.52"><g transform="matrix(1,0,0,1,0,0)"><svg width="395.52" viewBox="1.2565104576622617 -18.248312518983383 225.41692521253123 48.541305855331004" height="85.17133991613936" data-palette-color="#3269c6"><path d="M21.054 26.377v0c-3.007-0.805-5.119-2.071-6.333-3.797-1.22-1.734-1.808-3.583-1.766-5.546v0c-0.395-0.071-0.793-0.133-1.193-0.184-0.405-0.06-0.817-0.146-1.235-0.259v0c-2.846-0.762-5.009-2.069-6.487-3.921-1.478-1.852-2.363-4.011-2.655-6.477-0.29-2.473-0.09-5 0.602-7.582v0c0.659-2.46 1.703-4.813 3.133-7.06 1.438-2.251 3.163-4.198 5.176-5.84 2.021-1.647 4.264-2.806 6.729-3.478 2.464-0.672 5.071-0.64 7.821 0.096v0c2.132 0.571 3.877 1.463 5.236 2.675 1.359 1.213 2.364 2.641 3.014 4.286 0.648 1.651 0.99 3.416 1.026 5.295 0.029 1.878-0.217 3.786-0.736 5.725v0c-0.685 2.557-1.783 5.009-3.295 7.358-1.512 2.349-3.356 4.35-5.531 6.004-2.175 1.654-4.572 2.72-7.192 3.198v0c1.009 0.512 2.126 0.99 3.352 1.436 1.231 0.454 2.639 0.893 4.223 1.317v0c0.554 0.148 1.127 0.302 1.72 0.461 0.599 0.16 1.212 0.307 1.838 0.44v0l0.09 0.438c-0.946 1.445-2.026 2.629-3.239 3.553-1.218 0.916-2.651 1.537-4.298 1.862zM14.119 10.948v0c1.101 0.295 2.167 0.166 3.198-0.385 1.033-0.559 2.003-1.399 2.912-2.523 0.902-1.125 1.708-2.424 2.42-3.897 0.705-1.474 1.27-3.004 1.694-4.588v0c0.476-1.777 0.74-3.473 0.793-5.088 0.046-1.616-0.167-2.999-0.639-4.146-0.471-1.154-1.27-1.882-2.397-2.184v0c-1.23-0.329-2.407-0.237-3.531 0.276-1.124 0.513-2.171 1.317-3.14 2.409-0.969 1.093-1.822 2.373-2.56 3.839-0.744 1.464-1.324 2.972-1.739 4.524v0c-0.476 1.777-0.709 3.499-0.7 5.165 0.003 1.664 0.303 3.097 0.899 4.298 0.598 1.195 1.528 1.962 2.79 2.3zM37.961 22.957v0c-1.482-0.269-2.615-1.105-3.396-2.508-0.783-1.396-0.989-3.117-0.617-5.163v0c0.203-1.115 0.552-2.292 1.048-3.53 0.503-1.237 0.99-2.409 1.462-3.515v0c0.385-0.811 0.716-1.574 0.995-2.289 0.286-0.714 0.471-1.304 0.555-1.769v0c0.107-0.59 0.06-1.039-0.141-1.347-0.195-0.306-0.457-0.489-0.785-0.549v0c-0.335-0.061-0.685-0.016-1.051 0.134-0.367 0.157-0.688 0.431-0.962 0.821v0l-0.367-0.219c0.245-1.351 0.783-2.443 1.611-3.275 0.83-0.838 1.801-1.411 2.914-1.716 1.114-0.313 2.195-0.374 3.245-0.183v0c0.859 0.156 1.651 0.479 2.375 0.97 0.731 0.492 1.286 1.145 1.667 1.959 0.379 0.821 0.471 1.773 0.274 2.855v0c-0.12 0.662-0.356 1.436-0.707 2.321-0.352 0.891-0.732 1.812-1.141 2.761v0c-0.414 0.975-0.824 1.964-1.231 2.968-0.398 0.998-0.669 1.891-0.812 2.678v0c-0.132 0.728-0.125 1.343 0.021 1.843 0.146 0.501 0.449 0.793 0.908 0.876v0c0.859 0.156 1.967-0.459 3.324-1.845 1.356-1.387 2.608-3.351 3.754-5.894v0c0.228-0.507 0.444-1.047 0.65-1.62 0.207-0.579 0.367-1.18 0.48-1.803v0c0.089-0.492 0.148-1 0.175-1.523 0.027-0.524 0.023-1.06-0.013-1.609v0l0.063-0.344c0.687-0.797 1.492-1.348 2.415-1.655 0.924-0.313 1.816-0.392 2.675-0.235v0c1.148 0.209 2.112 0.794 2.893 1.755 0.782 0.955 1.035 2.19 0.759 3.705v0c-0.162 0.892-0.516 1.891-1.063 2.999-0.54 1.108-1.121 2.253-1.742 3.434v0c-0.615 1.149-1.198 2.286-1.748 3.412-0.544 1.128-0.899 2.151-1.066 3.069v0c-0.245 1.351 0.111 2.114 1.069 2.288v0c0.262 0.048 0.597 0.031 1.005-0.051 0.407-0.075 0.816-0.313 1.227-0.712v0l0.327 0.161c-0.215 1.181-0.725 2.165-1.533 2.953-0.807 0.788-1.751 1.342-2.833 1.661-1.073 0.313-2.138 0.374-3.194 0.182v0c-1.351-0.245-2.471-0.961-3.36-2.146-0.89-1.178-1.132-2.889-0.724-5.132v0l0.017-0.098c-1.771 2.063-3.47 3.455-5.098 4.176-1.63 0.727-3.071 0.977-4.324 0.749zM73.898 1.237v0c-1.33-0.159-2.371-0.697-3.12-1.613-0.75-0.916-1.051-1.989-0.903-3.22v0c0.159-1.33 0.793-2.416 1.901-3.257 1.115-0.847 2.388-1.184 3.817-1.013v0c1.33 0.159 2.37 0.704 3.118 1.633 0.747 0.936 1.047 2.019 0.9 3.25v0c-0.159 1.33-0.796 2.409-1.909 3.236-1.113 0.827-2.381 1.155-3.804 0.984zM67.184 27.686v0c-1.297-0.155-2.404-0.751-3.321-1.788-0.923-1.037-1.263-2.569-1.021-4.594v0c0.14-1.165 0.429-2.235 0.868-3.209 0.432-0.975 0.915-1.921 1.448-2.838 0.533-0.916 1.013-1.812 1.44-2.688 0.421-0.876 0.684-1.761 0.792-2.655v0c0.096-0.801 0.033-1.393-0.191-1.775-0.224-0.376-0.517-0.586-0.881-0.629v0c-0.569-0.068-1.162 0.23-1.779 0.894v0l-0.324-0.24c0.292-1.315 0.852-2.402 1.68-3.263 0.828-0.861 1.797-1.493 2.907-1.898 1.11-0.411 2.181-0.554 3.214-0.43v0c1.264 0.151 2.311 0.69 3.14 1.615 0.836 0.926 1.144 2.306 0.924 4.139v0c-0.131 1.092-0.428 2.228-0.892 3.408-0.463 1.173-0.971 2.334-1.525 3.483-0.56 1.142-1.06 2.21-1.502 3.204-0.435 0.995-0.696 1.857-0.783 2.586v0c-0.076 0.635-0.008 1.1 0.206 1.394 0.22 0.295 0.479 0.46 0.776 0.496v0c0.298 0.036 0.6-0.022 0.907-0.173 0.306-0.145 0.54-0.328 0.701-0.551v0l0.334 0.151c-0.147 1.225-0.599 2.255-1.357 3.09-0.758 0.836-1.651 1.454-2.68 1.855-1.022 0.401-2.049 0.54-3.081 0.416zM87.896 29.632v0c-2.209-0.143-4.039-0.762-5.491-1.859-1.458-1.103-2.518-2.491-3.178-4.163-0.667-1.667-0.94-3.435-0.819-5.304v0c0.114-1.77 0.572-3.52 1.371-5.253 0.8-1.725 1.916-3.287 3.35-4.683 1.434-1.404 3.14-2.486 5.12-3.246 1.973-0.761 4.214-1.06 6.722-0.898v0c2.468 0.16 4.272 0.771 5.413 1.833 1.14 1.069 1.672 2.186 1.597 3.35v0c-0.08 1.237-0.772 2.335-2.077 3.293-1.304 0.951-3.14 1.35-5.509 1.197v0c0.165-0.49 0.308-0.992 0.428-1.506 0.113-0.514 0.185-1.003 0.216-1.469v0c0.045-0.699-0.066-1.3-0.334-1.805-0.268-0.505-0.788-0.782-1.56-0.833v0c-0.699-0.045-1.461 0.226-2.287 0.814-0.826 0.581-1.555 1.473-2.187 2.675-0.632 1.195-1.006 2.697-1.124 4.506v0c-0.114 1.77 0.086 3.222 0.6 4.358 0.514 1.142 1.221 1.986 2.121 2.532 0.907 0.546 1.879 0.853 2.917 0.921v0c1.37 0.089 2.711-0.185 4.021-0.822 1.317-0.636 2.303-1.571 2.958-2.805v0l0.486 0.231c-0.112 1.736-0.6 3.188-1.465 4.355-0.864 1.173-1.94 2.112-3.228 2.818-1.288 0.705-2.646 1.195-4.074 1.47-1.427 0.275-2.756 0.373-3.987 0.293zM122.212 30.288v0c-1.1 0.004-2.138-0.251-3.113-0.768-0.975-0.516-1.765-1.273-2.369-2.27-0.604-1.004-0.909-2.21-0.915-3.616v0c-0.006-1.44 0.337-3.065 1.03-4.875v0c0.532-0.269 1.167-0.688 1.905-1.257 0.731-0.576 1.382-1.226 1.952-1.948 0.564-0.716 0.844-1.427 0.842-2.134v0c-0.003-0.633-0.248-1.136-0.737-1.507-0.481-0.365-1.076-0.546-1.782-0.543v0c-0.867 0.004-1.686 0.277-2.457 0.82-0.764 0.536-1.438 1.233-2.021 2.089-0.583 0.856-1.033 1.778-1.349 2.765-0.316 0.988-0.472 1.935-0.468 2.842v0c0.004 0.867 0.117 1.676 0.34 2.429 0.223 0.752 0.337 1.615 0.34 2.588v0c0.006 1.507-0.392 2.778-1.194 3.815-0.796 1.043-1.98 1.568-3.554 1.575v0c-1.44 0.006-2.599-0.476-3.476-1.446-0.871-0.963-1.309-2.281-1.316-3.955v0c-0.004-0.873 0.098-2.03 0.306-3.471 0.214-1.441 0.484-3.032 0.811-4.773 0.326-1.741 0.646-3.539 0.958-5.394 0.312-1.861 0.572-3.656 0.778-5.383 0.213-1.721 0.317-3.268 0.311-4.642v0c-0.003-0.74-0.046-1.416-0.129-2.029-0.089-0.62-0.268-1.116-0.536-1.488v0l-0.001-0.3c0.73-0.836 1.531-1.456 2.402-1.86 0.865-0.41 1.717-0.617 2.558-0.62v0c1.273-0.005 2.362 0.444 3.265 1.346 0.91 0.896 1.369 2.234 1.377 4.015v0c0.004 0.933-0.118 2.071-0.366 3.411-0.241 1.341-0.535 2.749-0.883 4.224-0.347 1.475-0.702 2.883-1.063 4.224v0c0.729-1.076 1.561-2.186 2.497-3.33 0.929-1.144 1.978-2.111 3.148-2.903 1.17-0.791 2.492-1.19 3.965-1.196v0c1.707-0.007 3.049 0.534 4.027 1.624 0.971 1.083 1.46 2.377 1.466 3.884v0c0.006 1.507-0.531 3.116-1.611 4.826-1.08 1.711-2.89 3.159-5.432 4.342v0c0.437 0.965 1.044 1.832 1.821 2.603 0.77 0.764 1.619 1.353 2.547 1.77 0.922 0.416 1.783 0.623 2.582 0.619v0c0.4-0.002 0.753-0.07 1.06-0.204v0l0.301 0.299c-0.832 1.943-1.973 3.395-3.422 4.354-1.456 0.959-2.921 1.442-4.395 1.448zM136.939 29.603v0c-1.196 0.101-2.306-0.335-3.331-1.305-1.018-0.971-1.621-2.577-1.809-4.816v0c-0.132-1.568-0.058-3.153 0.222-4.755 0.287-1.603 0.592-3.07 0.915-4.402v0c0.491-2.196 0.91-4.214 1.257-6.056 0.347-1.842 0.452-3.58 0.314-5.215v0c-0.095-1.136-0.284-1.91-0.566-2.321-0.289-0.411-0.632-0.599-1.031-0.566v0c-0.432 0.036-0.887 0.309-1.366 0.818-0.479 0.509-0.927 1.269-1.344 2.28v0l-0.367-0.069c-0.096-1.939 0.182-3.641 0.835-5.108 0.646-1.466 1.521-2.633 2.626-3.502 1.105-0.862 2.275-1.345 3.511-1.449v0c1.402-0.118 2.648 0.339 3.738 1.371 1.097 1.032 1.76 2.916 1.99 5.653v0c0.121 1.435 0.104 2.948-0.05 4.541-0.154 1.592-0.348 3.187-0.581 4.785v0c1.097-0.561 2.271-0.997 3.523-1.31 1.252-0.306 2.592-0.519 4.02-0.639v0l1.306-0.109c0.292-1.704 0.529-3.376 0.712-5.018 0.183-1.648 0.215-3.172 0.097-4.574v0c-0.042-0.498-0.108-0.961-0.197-1.388-0.083-0.428-0.174-0.842-0.275-1.241v0l-0.033-0.399c0.423-0.939 1.087-1.717 1.991-2.335 0.905-0.611 1.843-0.958 2.813-1.039v0c1.096-0.092 2.093 0.185 2.99 0.832 0.891 0.648 1.402 1.755 1.534 3.323v0c0.098 1.163 0.001 2.683-0.289 4.561-0.298 1.871-0.651 3.798-1.06 5.779v0c-0.466 2.421-0.881 4.764-1.245 7.029-0.365 2.265-0.483 4.165-0.354 5.699v0c0.087 1.036 0.325 1.839 0.714 2.409 0.383 0.577 0.94 0.834 1.671 0.773v0c1.003-0.084 1.713-0.632 2.129-1.644v0l0.312 0.124c0.085 1.405-0.194 2.672-0.834 3.803-0.648 1.125-1.488 2.035-2.521 2.731-1.033 0.689-2.117 1.081-3.253 1.176v0c-0.996 0.084-1.958-0.096-2.885-0.54-0.927-0.444-1.712-1.191-2.356-2.24-0.644-1.056-1.04-2.468-1.189-4.236v0c-0.098-1.169-0.079-2.455 0.057-3.858 0.129-1.409 0.3-2.842 0.512-4.298v0c-1.543 0.029-3.049 0.106-4.517 0.229v0c-0.731 0.061-1.427 0.137-2.088 0.226-0.668 0.09-1.298 0.193-1.891 0.309v0c-0.187 1.354-0.336 2.684-0.447 3.992-0.111 1.301-0.117 2.552-0.016 3.754v0c0.056 0.664 0.154 1.318 0.296 1.963 0.134 0.644 0.33 1.257 0.586 1.837v0c-0.429 1.347-1.089 2.403-1.982 3.167-0.892 0.764-1.824 1.187-2.794 1.268zM171.479-1.203v0c-1.325 0.197-2.47-0.047-3.435-0.733-0.965-0.686-1.538-1.642-1.721-2.868v0c-0.197-1.325 0.128-2.54 0.975-3.643 0.853-1.111 1.991-1.772 3.416-1.984v0c1.325-0.197 2.471 0.054 3.438 0.753 0.968 0.705 1.543 1.671 1.725 2.898v0c0.197 1.325-0.132 2.534-0.988 3.624-0.856 1.091-1.992 1.742-3.41 1.953zM171.977 26.081v0c-1.292 0.192-2.517-0.091-3.674-0.849-1.164-0.757-1.896-2.144-2.197-4.162v0c-0.173-1.161-0.176-2.269-0.009-3.325 0.16-1.055 0.376-2.095 0.649-3.12 0.272-1.025 0.499-2.015 0.68-2.972 0.175-0.956 0.196-1.879 0.063-2.769v0c-0.119-0.798-0.336-1.352-0.651-1.663-0.315-0.304-0.653-0.429-1.016-0.374v0c-0.567 0.084-1.06 0.528-1.481 1.332v0l-0.375-0.146c-0.065-1.345 0.188-2.542 0.76-3.591 0.572-1.049 1.34-1.915 2.303-2.597 0.962-0.689 1.958-1.11 2.987-1.263v0c1.259-0.187 2.411 0.056 3.455 0.73 1.05 0.673 1.711 1.923 1.983 3.749v0c0.162 1.088 0.175 2.262 0.038 3.522-0.137 1.254-0.321 2.508-0.553 3.763-0.239 1.249-0.44 2.411-0.603 3.486-0.157 1.075-0.182 1.975-0.074 2.7v0c0.094 0.633 0.283 1.063 0.566 1.291 0.29 0.227 0.583 0.318 0.88 0.274v0c0.297-0.044 0.573-0.18 0.829-0.407 0.257-0.22 0.434-0.459 0.531-0.715v0l0.362 0.057c0.181 1.22 0.017 2.333-0.494 3.339-0.511 1.006-1.21 1.838-2.096 2.495-0.88 0.657-1.834 1.061-2.863 1.215zM188.691 23.121v0c-1.182 0.242-2.329-0.027-3.441-0.806-1.119-0.778-1.859-2.053-2.221-3.823v0c-0.175-0.856-0.275-1.846-0.301-2.97-0.024-1.118-0.018-2.269 0.018-3.454 0.029-1.19 0.039-2.305 0.031-3.344-0.008-1.039-0.079-1.886-0.213-2.538v0c-0.142-0.692-0.379-1.219-0.711-1.58-0.324-0.356-0.686-0.493-1.084-0.411v0c-0.62 0.127-1.171 0.682-1.65 1.664v0l-0.344-0.134c-0.14-0.516-0.149-1.164-0.03-1.943 0.114-0.772 0.38-1.551 0.798-2.337 0.424-0.788 1.024-1.499 1.799-2.134 0.774-0.641 1.749-1.082 2.924-1.323v0c1.737-0.355 3.104-0.111 4.1 0.734 0.988 0.839 1.626 1.964 1.915 3.375v0c0.047 0.229 0.088 0.465 0.125 0.709 0.031 0.252 0.054 0.496 0.068 0.731v0c0.747-2.371 1.655-4.254 2.723-5.65 1.061-1.401 2.15-2.216 3.267-2.444v0c1.045-0.214 1.9 0.04 2.564 0.762 0.657 0.716 1.103 1.649 1.338 2.799v0c0.215 1.052 0.228 2.162 0.038 3.33-0.191 1.162-0.616 2.178-1.276 3.047-0.659 0.87-1.564 1.405-2.713 1.606v0l-0.216-0.058c-0.213-0.841-0.631-1.456-1.255-1.846-0.623-0.383-1.264-0.507-1.924-0.372v0c-0.882 0.18-1.618 0.79-2.208 1.829-0.589 1.046-0.713 2.405-0.371 4.077v0c0.208 1.019 0.548 2.096 1.018 3.232 0.469 1.129 0.788 2.105 0.956 2.928v0c0.2 0.98 0.156 1.928-0.133 2.844-0.29 0.91-0.749 1.677-1.376 2.302-0.621 0.624-1.359 1.023-2.215 1.198zM217.343 16.552v0c-2.355 0.64-4.436 0.695-6.246 0.165-1.809-0.531-3.316-1.475-4.521-2.834-1.197-1.353-2.041-2.934-2.533-4.741v0c-0.465-1.711-0.602-3.522-0.409-5.433 0.186-1.909 0.725-3.748 1.619-5.518 0.889-1.762 2.128-3.328 3.717-4.7 1.583-1.37 3.522-2.367 5.819-2.991v0c2.843-0.773 5.092-0.697 6.747 0.228 1.652 0.919 2.724 2.282 3.215 4.09v0c0.421 1.55 0.399 3.094-0.068 4.63-0.468 1.53-1.271 2.874-2.406 4.032-1.142 1.16-2.521 1.96-4.136 2.399v0c-0.843 0.229-1.733 0.333-2.672 0.312-0.945-0.019-1.914-0.191-2.907-0.515v0c0.713 1.962 1.69 3.257 2.933 3.887 1.25 0.634 2.57 0.763 3.959 0.384v0c0.965-0.262 1.882-0.712 2.753-1.349 0.87-0.637 1.635-1.367 2.296-2.189 0.661-0.822 1.125-1.632 1.391-2.43v0l0.403 0.149c0.456 1.679 0.497 3.202 0.123 4.568-0.373 1.373-1.025 2.583-1.956 3.631-0.923 1.052-2.011 1.928-3.265 2.628-1.245 0.705-2.531 1.237-3.856 1.598zM214.905 3.163v0c1.029-0.28 1.788-0.804 2.278-1.572 0.481-0.773 0.772-1.609 0.873-2.507 0.109-0.893 0.08-1.649-0.088-2.267v0c-0.201-0.74-0.582-1.303-1.143-1.689-0.555-0.388-1.202-0.482-1.942-0.28v0c-0.585 0.159-1.169 0.542-1.75 1.149-0.579 0.613-1.004 1.503-1.274 2.668-0.271 1.165-0.244 2.674 0.08 4.527v0c1.167 0.201 2.156 0.191 2.966-0.029z" opacity="1" transform="matrix(1,0,0,1,0,0)" fill="#3269c6" class="wordmark-text-0" data-fill-palette-color="primary" id="text-0"></path></svg></g></svg></g></svg></g></svg></g><g transform="matrix(1,0,0,1,401.60500598443247,0)"><svg viewBox="0 0 85.0573830792165 85.17133991613936" height="85.17133991613936" width="85.0573830792165"><g><svg xmlns="http://www.w3.org/2000/svg" xmlns:xlink="http://www.w3.org/1999/xlink" version="1.1" x="0" y="0" viewBox="3.4999999999999964 3.4749999999999974 93.30000000000001 93.42500000000001" style="enable-background:new 0 0 100 100;" xml:space="preserve" height="85.17133991613936" width="85.0573830792165" class="icon-icon-0" data-fill-palette-color="accent" id="icon-0"><g fill="#3269c6" data-fill-palette-color="accent"><path d="M31.5 21.9c3 0 5.4-2.4 5.4-5.4s-2.4-5.4-5.4-5.4c-3 0-5.4 2.4-5.4 5.4S28.5 21.9 31.5 21.9zM31.5 14.1c1.3 0 2.4 1.1 2.4 2.4s-1.1 2.4-2.4 2.4c-1.3 0-2.4-1.1-2.4-2.4S30.2 14.1 31.5 14.1z" fill="#3269c6" data-fill-palette-color="accent"></path><path d="M40.3 26.2l-6.4-1.8c-0.5-0.1-1 0-1.4 0.4l-0.9 0.9-0.9-0.9c-0.4-0.4-0.9-0.5-1.4-0.4l-6.4 1.8c-0.7 0.2-1.2 0.9-1.1 1.6l1.7 12.5c0.1 0.4 0.3 0.8 0.7 1.1l1.7 1.1 0.3 7.8c0 0.8 0.7 1.4 1.5 1.4h8.1c0.8 0 1.5-0.6 1.5-1.4l0.3-7.8 1.7-1.1c0.4-0.2 0.6-0.6 0.7-1.1l1.7-12.5C41.5 27.1 41 26.4 40.3 26.2zM36.8 39.3l-1.7 1.1c-0.4 0.3-0.7 0.7-0.7 1.2l-0.3 7.2h-5.2l-0.3-7.2c0-0.5-0.3-0.9-0.7-1.2l-1.7-1.1-1.4-10.6 4.4-1.2 1.3 1.2c0.3 0.3 0.7 0.4 1.1 0.4 0.4 0 0.8-0.1 1.1-0.4l1.3-1.2 4.4 1.2L36.8 39.3z" fill="#3269c6" data-fill-palette-color="accent"></path><path d="M95.5 87L69.1 60.6c-1.8-1.8-4.7-1.9-6.6-0.2L53 50.9c4.7-5.2 7.3-11.9 7.3-19 0-7.6-3-14.7-8.3-20.1-11.1-11.1-29.1-11.1-40.2 0-5.4 5.4-8.3 12.5-8.3 20.1s3 14.7 8.3 20.1c5.5 5.5 12.8 8.3 20.1 8.3 6.8 0 13.6-2.4 19-7.3l9.4 9.4c-0.8 0.9-1.2 2-1.2 3.2 0 1.3 0.5 2.5 1.4 3.4L87 95.5c0.9 0.9 2.1 1.4 3.4 1.4 1.3 0 2.5-0.5 3.4-1.4l1.6-1.6c0.9-0.9 1.4-2.1 1.4-3.4S96.4 87.9 95.5 87zM13.9 49.9c-4.8-4.8-7.4-11.2-7.4-18s2.6-13.2 7.4-18c5-5 11.5-7.4 18-7.4 6.5 0 13 2.5 18 7.4 4.8 4.8 7.4 11.2 7.4 18s-2.6 13.2-7.4 18C40 59.8 23.9 59.8 13.9 49.9zM93.3 91.7C93.3 91.7 93.3 91.7 93.3 91.7l-1.6 1.6c-0.7 0.7-2 0.7-2.7 0L62.7 67c-0.4-0.4-0.5-0.8-0.5-1.3s0.2-1 0.5-1.3l1.6-1.6c0.4-0.4 0.8-0.5 1.3-0.5s1 0.2 1.3 0.5l26.4 26.4c0.4 0.4 0.5 0.8 0.5 1.3S93.7 91.4 93.3 91.7z" fill="#3269c6" data-fill-palette-color="accent"></path></g></svg></g></svg></g></svg></g><defs></defs></svg><rect width="395.52" height="69.22040642681682" fill="none" stroke="none" visibility="hidden"></rect></g></svg></g></svg>