<svg width="1281" height="493" viewBox="0 0 1281 493" fill="none" xmlns="http://www.w3.org/2000/svg">
<path d="M446.333 1.66674C440.733 3.93341 437 9.5334 437 15.8001C437 20.6001 437.8 22.3334 441.267 25.8001C449.133 33.8001 464.2 32.2001 469 23.0001C473.267 14.8667 470.733 6.33341 463 2.33341C458.867 0.200072 450.6 -0.199928 446.333 1.66674Z" fill="white"/>
<path d="M904.999 1.66674C899.399 3.93341 895.666 9.5334 895.666 15.8001C895.666 20.6001 896.466 22.3334 899.933 25.8001C907.799 33.8001 922.866 32.2001 927.666 23.0001C931.933 14.8667 929.399 6.33341 921.666 2.33341C917.533 0.200072 909.266 -0.199928 904.999 1.66674Z" fill="white"/>
<path d="M617.666 74.9998V141.667H631.666H645.666V129.267V116.867L652.333 110.333C656.333 106.467 659.399 104.333 660.066 105C660.733 105.8 667.666 114.333 675.533 123.933L689.799 141.667H706.466H723.266L719.266 136.6C717.133 133.933 707.533 121.533 697.799 109.267C688.066 96.9998 680.333 86.3332 680.599 85.6665C680.866 84.9998 688.199 76.9998 696.999 68.0665C705.799 58.9998 714.333 50.1998 715.933 48.3332L718.866 44.9998L703.266 45.1332C694.733 45.2665 687.266 45.3998 686.599 45.5332C686.066 45.5332 676.733 54.0665 665.933 64.3332L646.333 82.8665L645.933 45.6665L645.666 8.33316H631.666H617.666V74.9998Z" fill="white"/>
<path d="M194.067 15.6663C154.867 24.1996 132.867 63.7996 146.333 101.666C153.133 121 171.667 136.6 193.667 141.666C199.667 143.133 202.467 144.866 209.667 151.533C214.467 156.066 222.067 161.666 226.467 163.933C245 173.8 270.467 171.4 282.467 158.866L286.067 155.133L279.8 147.8L273.533 140.466L267.533 144.2C257.133 150.866 247 150.733 238.467 143.933L234.467 140.733L243.133 136.6C259.133 129 270.867 115.666 276.333 98.9996C278.867 91.6663 279.133 88.0663 278.733 75.6663C278.333 62.0663 277.933 60.333 273.4 50.9996C259.667 22.733 227.4 8.46628 194.067 15.6663ZM227.667 41.533C253.533 52.9996 258.333 91.2663 236.2 110.2C226.2 118.733 210.6 121.4 197.267 116.866C188.733 113.933 178.733 104.733 174.867 96.0663C171 87.2663 170.6 70.5996 174.2 62.4663C183 41.6663 207 32.333 227.667 41.533Z" fill="white"/>
<path d="M747 78.9998V141.667H761.667H776.333V115.667V89.6665H805H833.667V115.667V141.667H848.333H863V78.9998V16.3332H848.333H833.667V40.9998V65.6665H805H776.333V40.9998V16.3332H761.667H747V78.9998Z" fill="white"/>
<path d="M541.266 44.5999C523.8 46.3333 507.266 57.2666 500.466 71.6666C496.2 80.5999 495.133 98.0666 498.2 108.733C502.066 122.067 513.266 133.533 527.933 139C550.066 147.267 576.066 141.533 587.933 125.933C590.333 122.733 592.333 119.667 592.333 119.267C592.333 118.733 587.666 115.8 581.933 112.733L571.666 107.267L566.733 112.333C555.266 124.467 535.666 122.067 527.266 107.667C524.733 103.133 524.333 100.733 524.6 92.1999C524.866 84.0666 525.666 81.2666 528.333 77.2666C533 70.4666 540.066 66.8666 548.866 66.8666C557.266 66.8666 560.466 68.1999 567.133 74.5999L571.933 79.1333L582.066 73.6666C587.8 70.5999 592.333 67.6666 592.333 67.2666C592.333 66.7333 590.2 63.5333 587.666 60.0666C579.133 48.4666 561.533 42.4666 541.266 44.5999Z" fill="white"/>
<path d="M1082.33 44.4665C1066.07 46.0665 1050.33 56.7331 1043.4 70.7331C1038.2 81.2665 1037.4 100.066 1041.67 111.266C1049.4 131.933 1072.6 144.6 1098.6 142.466C1110.47 141.533 1121.93 137.266 1128.07 131.666L1132.87 127.4L1126.2 119.933C1119.67 112.333 1117.27 111 1115.53 113.8C1115.13 114.6 1112.2 116.466 1109.13 117.8C1101.27 121.4 1087 121.266 1079.4 117.533C1073.4 114.6 1067 106.866 1067 102.6C1067 100.333 1068.87 100.2 1102.33 100.466C1127.93 100.733 1138.2 100.333 1139.27 99.2665C1141.53 96.9998 1138.73 78.1998 1135.13 70.7331C1125.93 51.6665 1106.6 42.0665 1082.33 44.4665ZM1097.93 65.6665C1102.47 66.9998 1112.33 76.0665 1112.33 78.8665C1112.33 79.5331 1112.73 80.9998 1113.13 82.1998C1113.8 84.0665 1111.27 84.3331 1089.8 84.3331H1065.67L1067.67 79.3998C1070.47 72.7331 1073.27 69.7998 1079.67 66.8665C1085.67 64.0665 1090.87 63.7998 1097.93 65.6665Z" fill="white"/>
<path d="M308.466 45.3999C306.6 46.0666 306.466 96.0666 308.333 108.733C311 126.467 319.666 136.733 335.8 141C349.533 144.6 361.8 142.733 372.333 135.667L379 131.133V136.467V141.667H392.333H405.667V93.6666C405.667 67.2666 405.267 45.5332 404.733 45.5332C404.067 45.3999 397.8 45.2666 390.733 45.1332L377.8 44.8666L377.4 74.3332C377 102.467 376.866 103.933 373.8 108.733C365.8 121.8 345.666 122.333 338.333 109.667C335.933 105.4 335.666 102.067 335 74.9999L334.333 44.9999H322.066C315.4 44.9999 309.266 45.1332 308.466 45.3999Z" fill="white"/>
<path d="M440.866 45.5332C440.6 45.7998 440.333 67.6665 440.333 93.9332V141.667H454.333H468.333L468.066 93.3998L467.666 44.9998H454.6C447.4 44.9998 441.266 45.1332 440.866 45.5332Z" fill="white"/>
<path d="M899.533 45.5332C899.267 45.7998 899 67.6665 899 93.9332V141.667H913H927L926.733 93.3998L926.333 44.9998H913.267C906.067 44.9998 899.933 45.1332 899.533 45.5332Z" fill="white"/>
<path d="M962.199 45.5332C961.933 45.7998 961.666 67.6665 961.666 93.9332V141.667H975.666H989.666V114.467C989.666 98.3332 990.199 85.6665 991.133 83.3998C994.466 74.4665 1002.6 69.3998 1013.93 69.1332L1021.67 68.9998V56.5998V44.3332H1015.8C1008.2 44.3332 999.533 47.3998 993.399 52.4665L988.333 56.4665V50.9998C988.333 48.0665 987.933 45.5332 987.399 45.5332C984.199 44.9998 962.733 44.9998 962.199 45.5332Z" fill="white"/>
<path d="M0.333008 232.333V247H640.333H1280.33V232.333V217.667H640.333H0.333008V232.333Z" fill="white"/>
<path d="M153.666 309.667C151.266 316.333 148.733 322.067 148.2 322.467C147.533 322.867 141 323.533 133.666 323.933C126.333 324.333 120.333 325.133 120.333 325.667C120.333 326.2 124.066 329.533 128.466 333.133C133 336.733 137.8 340.6 139.266 341.8C141.933 343.8 141.933 343.933 138.466 356.867C136.6 364.067 135 370.2 135 370.467C135 372.067 138.466 370.333 147.933 364.333C153.666 360.733 159 357.667 159.666 357.667C160.466 357.667 165.666 360.733 171.4 364.333C182.6 371.533 184.866 372.333 183.8 368.6C182.866 365.267 177.666 344.6 177.666 344.067C177.666 343.667 182.466 339.667 188.2 335C194.066 330.333 198.6 326.067 198.333 325.667C197.933 325.133 191.533 324.333 184.066 323.8C176.6 323.267 170.333 322.733 170.2 322.6C170.2 322.467 168.066 317 165.533 310.467C163 303.933 160.333 298.333 159.666 298.067C158.866 297.8 156.2 303.133 153.666 309.667Z" fill="white"/>
<path d="M273.666 309.666C271.266 316.333 268.733 322.066 268.2 322.466C267.533 322.866 261 323.533 253.666 323.933C246.333 324.333 240.333 325.133 240.333 325.666C240.333 326.2 244.066 329.533 248.466 333.133C253 336.733 257.8 340.6 259.266 341.8C261.933 343.8 261.933 343.933 258.466 356.866C256.6 364.066 255 370.2 255 370.466C255 372.066 258.466 370.333 267.933 364.333C273.666 360.733 278.866 357.666 279.533 357.666C280.2 357.666 285.533 360.6 291.266 364.333C300.333 370.066 304.333 372.066 304.333 370.6C304.333 370.466 302.866 364.733 301 357.933C299.133 351.133 297.666 345 297.666 344.466C297.666 343.933 302.466 339.666 308.2 335C314.066 330.333 318.6 326.066 318.2 325.4C317.8 324.866 314.866 324.333 311.8 324.333C308.6 324.333 302.466 323.933 298.2 323.533L290.2 322.733L285.666 310.6C283.133 303.933 280.333 298.333 279.666 298.066C278.866 297.8 276.2 303.133 273.666 309.666Z" fill="white"/>
<path d="M393.666 309.666C391.266 316.333 388.733 322.066 388.2 322.466C387.533 322.866 381 323.533 373.666 323.933C366.333 324.333 360.333 325.133 360.333 325.666C360.333 326.2 364.066 329.533 368.466 333.133C373 336.733 377.8 340.6 379.266 341.8C381.933 343.8 381.933 343.933 378.466 356.866C376.6 364.066 375 370.2 375 370.466C375 372.066 378.466 370.333 387.933 364.333C393.666 360.733 398.866 357.666 399.533 357.666C400.2 357.666 405.533 360.6 411.266 364.333C420.333 370.066 424.333 372.066 424.333 370.6C424.333 370.466 422.866 364.733 421 357.933C419.133 351.133 417.666 345 417.666 344.466C417.666 343.933 422.466 339.666 428.2 335C434.066 330.333 438.6 326.066 438.2 325.4C437.8 324.866 434.866 324.333 431.8 324.333C428.6 324.333 422.466 323.933 418.2 323.533L410.2 322.733L405.666 310.6C403.133 303.933 400.333 298.333 399.666 298.066C398.866 297.8 396.2 303.133 393.666 309.666Z" fill="white"/>
<path d="M873.666 309.8C871.133 316.466 868.466 322.2 867.8 322.333C865.133 323.266 854.466 324.2 847.4 324.2C843.533 324.333 840.333 324.866 840.333 325.4C840.333 326.066 845.133 330.333 851 335.133C856.866 339.8 861.666 343.933 861.666 344.333C861.666 344.733 860.2 350.466 858.333 357C856.466 363.666 855 369.4 855 369.933C855 372.066 857.8 370.866 867.933 364.333C873.666 360.733 878.866 357.666 879.533 357.666C880.2 357.666 885.533 360.6 891.266 364.333C900.333 370.066 904.333 372.066 904.333 370.6C904.333 370.466 902.866 364.733 901 357.933C899.133 351.133 897.666 345 897.666 344.466C897.666 343.933 902.466 339.666 908.2 335C914.066 330.333 918.6 326.066 918.2 325.4C917.8 324.866 914.866 324.333 911.8 324.333C908.6 324.333 902.466 323.933 898.2 323.533L890.2 322.733L885.666 310.6C883.133 303.933 880.333 298.333 879.666 298.066C878.866 297.8 876.2 303.133 873.666 309.8Z" fill="white"/>
<path d="M993.666 309.666C991.266 316.333 988.733 322.066 988.2 322.466C987.533 322.866 981 323.533 973.666 323.933C966.333 324.333 960.333 325.133 960.333 325.666C960.333 326.2 964.066 329.533 968.466 333.133C973 336.733 977.8 340.6 979.266 341.8C981.933 343.8 981.933 343.933 978.466 356.866C976.6 364.066 975 370.2 975 370.466C975 372.066 978.466 370.333 987.933 364.333C993.666 360.733 998.866 357.666 999.533 357.666C1000.2 357.666 1005.53 360.6 1011.27 364.333C1020.33 370.066 1024.33 372.066 1024.33 370.6C1024.33 370.466 1022.87 364.733 1021 357.933C1019.13 351.133 1017.67 345 1017.67 344.466C1017.67 343.933 1022.47 339.666 1028.2 335C1034.07 330.333 1038.6 326.066 1038.2 325.4C1037.8 324.866 1034.87 324.333 1031.8 324.333C1028.6 324.333 1022.47 323.933 1018.2 323.533L1010.2 322.733L1005.67 310.6C1003.13 303.933 1000.33 298.333 999.666 298.066C998.866 297.8 996.2 303.133 993.666 309.666Z" fill="white"/>
<path d="M1113.67 309.666C1111.27 316.333 1108.73 322.066 1108.2 322.466C1107.53 322.866 1101 323.533 1093.67 323.933C1086.33 324.333 1080.33 325.133 1080.33 325.666C1080.33 326.2 1084.07 329.533 1088.47 333.133C1093 336.733 1097.8 340.6 1099.27 341.8C1101.93 343.8 1101.93 343.933 1098.47 356.866C1096.6 364.066 1095 370.2 1095 370.466C1095 372.066 1098.47 370.333 1107.93 364.333C1113.67 360.733 1118.87 357.666 1119.53 357.666C1120.2 357.666 1125.53 360.6 1131.27 364.333C1140.33 370.066 1144.33 372.066 1144.33 370.6C1144.33 370.466 1142.87 364.733 1141 357.933C1139.13 351.133 1137.67 345 1137.67 344.466C1137.67 343.933 1142.47 339.666 1148.2 335C1154.07 330.333 1158.6 326.066 1158.2 325.4C1157.8 324.866 1154.87 324.333 1151.8 324.333C1148.6 324.333 1142.47 323.933 1138.2 323.533L1130.2 322.733L1125.67 310.6C1123.13 303.933 1120.33 298.333 1119.67 298.066C1118.87 297.8 1116.2 303.133 1113.67 309.666Z" fill="white"/>
<path d="M524.2 337.533L521 340.066L520.6 395.266C520.466 425.533 520.6 451.666 521 453.4C522.066 457.933 526.6 461.666 530.866 461.666C534.2 461.666 534.866 462.333 535.533 466.066C536.733 472.6 539.266 475.266 545.133 476.2C549.933 477 550.333 477.4 551.133 482.2C552.066 488.066 554.733 490.6 560.866 491.666C563.133 492.066 607.533 492.333 659.4 492.066L753.933 491.666L757.133 487.933L760.333 484.2V428.466C760.333 374.333 760.2 372.6 757.666 369.266C756.066 367.266 752.866 365.4 750.466 364.866C746.6 364.2 745.8 363.4 745.133 359.533C744.066 354.2 738.733 349.666 733.533 349.666C730.066 349.666 729.666 349.266 729.666 345.133C729.666 341.8 728.733 339.8 726.2 337.8C722.733 335 721.8 335 625 335C530.866 335 527.133 335.133 524.2 337.533ZM720.866 342.466C722.733 343.133 723 349.266 723 397.666C723 441.8 722.6 452.333 721.133 453.533C719.933 454.6 693.4 454.866 624.2 454.733L529 454.333L528.6 399.666C528.466 369.666 528.6 344.2 529 343.4C529.4 342.066 549.666 341.666 624.2 341.666C676.2 341.666 719.666 342.066 720.866 342.466ZM736.066 357.4C737.4 358.333 737.666 370.466 737.4 413.8L737 469H640.333H543.666L543.266 465.266L542.866 461.666H633H723.133L726.333 458.333L729.666 455.133V406.6C729.666 379.933 730.066 357.666 730.6 357.266C731.8 356.066 733.933 356.066 736.066 357.4ZM752.866 375.266C753.933 379.266 753.933 477.4 752.866 481.4L752.066 484.333L655.133 484.066L558.333 483.666L557.933 479.933L557.533 476.333H647.666C703.933 476.333 738.733 475.8 740.333 475C745.133 472.466 745.666 466.733 745.666 418.866V372.333H748.866C751 372.333 752.333 373.266 752.866 375.266Z" fill="white"/>
<path d="M574.199 351.4C573.799 352.467 573.666 355.667 573.933 358.467C574.199 362.6 574.866 363.667 576.999 363.667C579.266 363.667 579.666 362.733 579.666 357C579.666 351.8 579.133 350.333 577.266 349.933C576.066 349.667 574.599 350.333 574.199 351.4Z" fill="white"/>
<path d="M592.866 351.4C592.466 352.467 592.333 355.667 592.6 358.467C592.866 362.6 593.533 363.667 595.666 363.667C597.933 363.667 598.333 362.733 598.333 357C598.333 351.8 597.8 350.333 595.933 349.933C594.733 349.667 593.266 350.333 592.866 351.4Z" fill="white"/>
<path d="M611.933 350.466C611.399 351 610.999 353.4 610.999 355.933C610.999 359.4 609.799 361.4 605.533 365.266C596.866 373.133 593.266 381.533 592.599 395.666C591.933 411.266 595.133 420.6 604.466 429.933C609.399 434.866 610.866 437.4 611.266 441.266C611.533 445.266 612.199 446.333 614.333 446.333C616.199 446.333 617.133 445.266 617.399 442.6C617.799 439.133 618.066 439 625.799 439C633.266 439 633.666 439.133 633.666 442.333C633.666 446.2 637.399 448.333 639.133 445.533C639.799 444.466 640.333 441.8 640.333 439.666C640.333 436.733 641.799 434.333 645.799 430.466C648.866 427.666 652.866 421.933 654.733 417.8C657.799 411.533 658.333 408.466 658.333 398.333C658.333 388.2 657.799 385.133 654.733 378.733C652.866 374.6 648.866 368.866 645.933 366.066C641.666 361.933 640.466 359.666 640.066 355.533C639.799 351.4 639.133 350.333 636.999 350.333C635.133 350.333 634.199 351.4 633.933 353.933C633.533 357.533 633.266 357.666 625.666 357.666C618.066 357.666 617.799 357.533 617.399 354.066C616.999 350.466 613.933 348.6 611.933 350.466ZM636.333 366.733C648.199 374.066 654.466 391.4 651.133 407.133C646.466 428.733 626.866 439.133 612.199 427.933C597.533 416.866 594.466 390.733 605.799 375C613.799 363.933 626.333 360.6 636.333 366.733Z" fill="white"/>
<path d="M652.866 351.4C652.466 352.467 652.333 355.667 652.6 358.467C652.866 362.6 653.533 363.667 655.666 363.667C657.933 363.667 658.333 362.733 658.333 357C658.333 351.8 657.8 350.333 655.933 349.933C654.733 349.667 653.266 350.333 652.866 351.4Z" fill="white"/>
<path d="M671.533 351.4C671.133 352.467 671 355.667 671.267 358.467C671.533 362.6 672.2 363.667 674.333 363.667C676.6 363.667 677 362.733 677 357C677 351.8 676.467 350.333 674.6 349.933C673.4 349.667 671.933 350.333 671.533 351.4Z" fill="white"/>
<path d="M535.933 355.4C534.333 359.533 537 360.466 549.133 360.066C559.933 359.666 561 359.4 561 357C561 354.6 559.933 354.333 548.867 353.933C539.4 353.666 536.467 353.933 535.933 355.4Z" fill="white"/>
<path d="M690.2 355.667C688.733 359.533 691.667 360.467 703.133 360.067C713.267 359.667 714.333 359.4 714.333 357C714.333 354.6 713.267 354.333 702.6 353.933C692.867 353.667 690.867 353.933 690.2 355.667Z" fill="white"/>
<path d="M551.4 389C545.8 391.4 542.333 398.333 543.533 404.733C545.933 417.4 563.666 420.6 570.066 409.666C574.6 401.933 572.2 393 564.333 389C559.666 386.6 557 386.6 551.4 389ZM563.266 395.933C565.666 398.066 566.466 403.8 564.6 406.466C564.066 407.266 562.2 408.733 560.466 409.666C553.133 413.4 545.8 400.6 552.6 395.8C556.466 393 560.2 393.133 563.266 395.933Z" fill="white"/>
<path d="M686.066 389.133C679.933 392.2 676.866 399.266 678.866 405.8C681 412.733 685.933 416.333 693.266 416.333C701.666 416.333 707 411 707 402.466C707 391 696.066 384.066 686.066 389.133ZM698.866 397.133C702.333 401.533 702.333 403.133 699.266 407C694.6 412.733 684.333 409 684.333 401.533C684.333 397.933 689 393.666 692.866 393.666C694.866 393.666 697.266 395.133 698.866 397.133Z" fill="white"/>
<path d="M573.666 439C573.666 443.933 574.199 445.933 575.799 446.6C578.866 447.667 580.466 444.6 580.066 438.333C579.666 433.933 579.133 432.867 576.733 432.6C573.933 432.2 573.666 432.6 573.666 439Z" fill="white"/>
<path d="M592.866 434.066C592.466 435.133 592.333 438.333 592.6 441.133C592.866 445.266 593.533 446.333 595.666 446.333C597.933 446.333 598.333 445.4 598.333 439.666C598.333 434.466 597.8 433 595.933 432.6C594.733 432.333 593.266 433 592.866 434.066Z" fill="white"/>
<path d="M652.866 434.066C652.466 435.133 652.333 438.333 652.6 441.133C652.866 445.266 653.533 446.333 655.666 446.333C657.933 446.333 658.333 445.4 658.333 439.666C658.333 434.466 657.8 433 655.933 432.6C654.733 432.333 653.266 433 652.866 434.066Z" fill="white"/>
<path d="M671.533 434.066C671.133 435.133 671 438.333 671.267 441.133C671.533 445.266 672.2 446.333 674.333 446.333C676.6 446.333 677 445.4 677 439.666C677 434.466 676.467 433 674.6 432.6C673.4 432.333 671.933 433 671.533 434.066Z" fill="white"/>
<path d="M535.933 438.067C534.333 442.2 537 443.133 549.133 442.733C559.933 442.333 561 442.067 561 439.667C561 437.267 559.933 437 548.867 436.6C539.4 436.333 536.467 436.6 535.933 438.067Z" fill="white"/>
<path d="M689.933 439.266C690.333 442.2 690.866 442.333 702.333 442.333C713.4 442.333 714.333 442.2 714.333 439.666C714.333 437.266 713.266 437 701.933 436.6C689.666 436.2 689.533 436.333 689.933 439.266Z" fill="white"/>
</svg>
